<svg id="Layer_1" data-name="Layer 1" xmlns="http://www.w3.org/2000/svg" viewBox="0 0 61.3 80.67"><defs><style>.cls-1{fill:#58595b;}.cls-2{fill:#808184;}.cls-3{fill:#d0d2d3;}.cls-4{fill:#a6a8ab;}</style></defs><title>seanceLogo</title><path class="cls-1" d="M442.74,285.15l-0.15-.26a16.8,16.8,0,0,1-1.79-6.38c0-.36-0.06-0.72-0.08-1.09s0-.57,0-0.86l-9,6.7a22.71,22.71,0,0,0,1.85,5.43,23.39,23.39,0,0,0,6.91,8.43A30.25,30.25,0,0,0,450.58,302a45.22,45.22,0,0,0,12.26,1.62,46.74,46.74,0,0,0,10.64-1.24c0.65-.15,1.29-0.32,1.91-0.51C460.35,301.91,447.55,294.93,442.74,285.15Z" transform="translate(-431.67 -222.99)"/><path class="cls-2" d="M490.87,271.26a18.86,18.86,0,0,0-5.62-6.26,29.6,29.6,0,0,0-7.94-3.94q-4.43-1.46-9-2.54l-2.5-.58-10.14,7.53L458,266c3.06,0.68,6.06,1.35,9,2a41.37,41.37,0,0,1,7.94,2.54,15.69,15.69,0,0,1,5.62,4,9.71,9.71,0,0,1,2.1,6.48,11.83,11.83,0,0,1-6.26,11.18,20.56,20.56,0,0,1-6.32,2.21,37.58,37.58,0,0,1-7,.65,33,33,0,0,1-8.43-1.08,20.76,20.76,0,0,1-7.18-3.35,17.15,17.15,0,0,1-4.82-5.55c4.81,9.78,17.61,16.76,32.65,16.76a29.78,29.78,0,0,0,7.76-3.48,22.91,22.91,0,0,0,7.07-7.13A22,22,0,0,0,490.87,271.26Z" transform="translate(-431.67 -222.99)"/><path class="cls-3" d="M480,247.4l8.85-6.56a21.85,21.85,0,0,0-1.56-4.41,21.36,21.36,0,0,0-6-7.61,25,25,0,0,0-8.91-4.43,41.51,41.51,0,0,0-11-1.4A39.47,39.47,0,0,0,451,224.34c-1,.26-1.92.57-2.84,0.91C465.79,225.32,480,235.2,480,247.4Z" transform="translate(-431.67 -222.99)"/><path class="cls-4" d="M459.28,256.52a46.48,46.48,0,0,1-7.94-2.32,15.69,15.69,0,0,1-5.62-3.62,8,8,0,0,1-2.1-5.78,12.4,12.4,0,0,1,1.46-6.31,11.25,11.25,0,0,1,3.88-4,16.86,16.86,0,0,1,5.57-2.16,30.74,30.74,0,0,1,6.37-.65q8,0,13.12,3.72t6,12c0-12.2-14.22-22.08-31.83-22.15a27.4,27.4,0,0,0-6.13,3.19,20.9,20.9,0,0,0-6.32,7,20.49,20.49,0,0,0-2.37,10.1,16.89,16.89,0,0,0,2.1,8.8,17.2,17.2,0,0,0,5.62,5.73,32.73,32.73,0,0,0,7.94,3.56c2.18,0.67,4.39,1.27,6.64,1.82l10.14-7.53C463.59,257.44,461.42,257,459.28,256.52Z" transform="translate(-431.67 -222.99)"/></svg>