<svg id="Layer_1" data-name="Layer 1" xmlns="http://www.w3.org/2000/svg" viewBox="0 0 192 252.67"><defs><style>.cls-1{fill:#21ab6c;}.cls-2{fill:#26c767;}.cls-3{fill:#33fc7d;}.cls-4{fill:#2ce371;}</style></defs><title>seanceGreen</title><path class="cls-1" d="M328.68,359c-0.16-.25-0.31-0.53-0.47-0.81a52.61,52.61,0,0,1-5.61-20c-0.13-1.13-.19-2.26-0.25-3.41,0-.88-0.06-1.79-0.06-2.69l-28.28,21a71.12,71.12,0,0,0,5.79,17,73.25,73.25,0,0,0,21.64,26.4,94.75,94.75,0,0,0,31.79,15.41,141.62,141.62,0,0,0,38.4,5.07A146.4,146.4,0,0,0,425,413.08c2-.47,4-1,6-1.6C383.83,411.48,343.74,389.62,328.68,359Z" transform="translate(-294 -164.3)"/><path class="cls-2" d="M479.42,315.48a59.08,59.08,0,0,0-17.6-19.61A92.72,92.72,0,0,0,437,283.54q-13.86-4.56-28.22-8c-2.63-.63-5.23-1.22-7.83-1.82l-31.76,23.58c2.47,0.6,4.95,1.19,7.45,1.75,9.58,2.13,19,4.23,28.22,6.23a129.57,129.57,0,0,1,24.87,8A49.13,49.13,0,0,1,447.29,326q6.58,7.8,6.58,20.3,0,13.2-5.39,21.64a39.6,39.6,0,0,1-14.22,13.37,64.41,64.41,0,0,1-19.79,6.92,117.69,117.69,0,0,1-21.8,2,103.28,103.28,0,0,1-26.4-3.38,65,65,0,0,1-22.49-10.49A53.71,53.71,0,0,1,328.68,359c15.07,30.63,55.16,52.49,102.26,52.49a93.27,93.27,0,0,0,24.3-10.9,71.76,71.76,0,0,0,22.14-22.33q8.64-13.72,8.61-33Q486,327.32,479.42,315.48Z" transform="translate(-294 -164.3)"/><path class="cls-3" d="M445.41,240.75l27.72-20.55a68.44,68.44,0,0,0-4.89-13.81,66.9,66.9,0,0,0-18.92-23.84,78.35,78.35,0,0,0-27.91-13.88,130,130,0,0,0-34.52-4.38,123.63,123.63,0,0,0-32.29,4.23c-3.07.81-6,1.79-8.9,2.85C400.87,171.59,445.41,202.54,445.41,240.75Z" transform="translate(-294 -164.3)"/><path class="cls-4" d="M380.48,269.32A145.58,145.58,0,0,1,355.61,262c-7.33-2.94-13.19-6.7-17.6-11.34s-6.58-10.65-6.58-18.1c0-7.89,1.5-14.47,4.57-19.76a35.24,35.24,0,0,1,12.15-12.68,52.8,52.8,0,0,1,17.45-6.77,96.26,96.26,0,0,1,20-2q25,0,41.09,11.65t18.76,37.74c0-38.21-44.54-69.16-99.69-69.38a85.83,85.83,0,0,0-19.2,10,65.44,65.44,0,0,0-19.79,22Q299.3,216.74,299.3,235q0,16.58,6.58,27.56a53.86,53.86,0,0,0,17.6,17.95,102.52,102.52,0,0,0,24.87,11.15c6.83,2.1,13.75,4,20.8,5.7l31.76-23.58C394,272.2,387.18,270.69,380.48,269.32Z" transform="translate(-294 -164.3)"/></svg>